# xmcd CD database file
# Copyright (C) 1993-1998 Ti Kan
#
# Track frame offsets:
#	150
#	13300
#	24650
#	38477
#	49497
#	61815
#	74350
#	88087
#	99362
#	111650
#	122187
#	134500
#	148975
#
# Disc length: 2167 seconds
#
# Revision: 1
# Processed by: cddbd v1.4b41PL1 Copyright (c) Steve Scherf et al.
# Submitted via: CDValet v3.31 - Copyright (c) 1997 Greg Leichner
#
DISCID=c608750d
DTITLE=Elmore James - Raw Blues Power
DYEAR=1900
DGENRE=
TTITLE0=Dust My Broom
TTITLE1=Look on Yonder Wall
TTITLE2=It Hurts Me Too
TTITLE3=Coming Home
TTITLE4=The Sky Is Crying
TTITLE5=Standing at the Crossroads
TTITLE6=Hand in Hand
TTITLE7=Rollin' and Tumblin'
TTITLE8=Mean Mistreatin' Mama
TTITLE9=I Done Someone Wrong
TTITLE10=Pickin' the Blues
TTITLE11=I Believe
TTITLE12=My Bleeding Heart
EXTD=
EXTT0=
EXTT1=
EXTT2=
EXTT3=
EXTT4=
EXTT5=
EXTT6=
EXTT7=
EXTT8=
EXTT9=
EXTT10=
EXTT11=
EXTT12=
PLAYORDER=
